<?xml version="1.0" encoding="UTF-8" standalone="no"?><!DOCTYPE svg PUBLIC "-//W3C//DTD SVG 1.1//EN" "http://www.w3.org/Graphics/SVG/1.1/DTD/svg11.dtd"><svg width="100%" height="100%" viewBox="0 0 385 385" version="1.1" xmlns="http://www.w3.org/2000/svg" xmlns:xlink="http://www.w3.org/1999/xlink" xml:space="preserve" xmlns:serif="http://www.serif.com/" style="fill-rule:evenodd;clip-rule:evenodd;stroke-linejoin:round;stroke-miterlimit:2;"><g><path d="M315.81,0.06c0.64,1.12 1.94,0.94 2.9,1.39c5.646,2.537 9.295,8.177 9.295,14.367c0,8.468 -6.83,15.498 -15.295,15.743c-1.37,0.05 -2.75,0 -4.12,0c-90.96,0 -181.92,-0.027 -272.88,-0.08c-3.38,0 -4.23,0.8 -4.23,4.22c0.1,91.58 0.143,183.163 0.13,274.75c0,6.85 -2.32,12.23 -8.35,15.6c-2.299,1.243 -4.871,1.893 -7.484,1.893c-6.176,0 -11.805,-3.634 -14.346,-9.263c-0.45,-1 -0.27,-2.26 -1.39,-2.9l0,-303c0.84,-7.38 5.37,-11.91 12.75,-12.75l303.02,0.03Z" style="fill-rule:nonzero;"/><path d="M371.31,384.06l-303,0c-9.25,-2.29 -13.19,-7.59 -13.19,-18l-0,-292.8c-0,-4.69 0.89,-8.92 4.14,-12.46c3.25,-3.54 7,-5.62 11.8,-5.67l294.67,-0c4.76,-0 9.15,0.71 13,3.71c3.43,2.64 4.85,6.17 5.32,10.27l-0,302.2c-0.83,7.38 -5.36,11.91 -12.74,12.75Zm-131.38,-197.91l-0,68.84c-0.06,24.84 -16.41,44.16 -40.89,48.42c-25.23,4.39 -51.26,-15 -54.26,-40.46c-3.52,-29.83 17.66,-54.09 47.67,-54.58c4.25,-0.07 8.51,-0.19 12.74,-0c2.74,0.15 3.29,-0.86 3.27,-3.39c-0.11,-14.37 0.47,-28.76 -0.21,-43.1c-0.62,-13.17 12.47,-21.92 24.71,-15.27c15,8.14 30.52,15.27 45.72,23c10.77,5.48 12.56,19 3.59,26.39c-5.35,4.43 -11.36,4.85 -17.52,1.88c-7.07,-3.41 -14,-7 -21.07,-10.51c-1.09,-0.45 -2.06,-1.33 -3.75,-1.22Z"/></g></svg>