<?xml version="1.0" encoding="UTF-8" standalone="no"?><!DOCTYPE svg PUBLIC "-//W3C//DTD SVG 1.1//EN" "http://www.w3.org/Graphics/SVG/1.1/DTD/svg11.dtd"><svg width="100%" height="100%" viewBox="0 0 382 382" version="1.1" xmlns="http://www.w3.org/2000/svg" xmlns:xlink="http://www.w3.org/1999/xlink" xml:space="preserve" xmlns:serif="http://www.serif.com/" style="fill-rule:evenodd;clip-rule:evenodd;stroke-linejoin:round;stroke-miterlimit:2;"><g><path d="M1.11,213.07c-1.105,-6.576 -0.443,-63.676 2.58,-66.94c5.746,-25.59 17.058,-49.604 33.13,-70.33c26.1,-33.64 59.83,-55.73 101.19,-66.27c16.941,-4.347 34.445,-6.09 51.91,-5.17c41.79,2.28 78.85,16.75 110.74,44.05c25.513,21.717 44.481,50.115 54.77,82c4.533,14.026 7.357,28.548 8.41,43.25c0.93,11.82 0.16,23.47 -0.93,35.16c-0.48,5.12 -1.88,5.89 -6.35,3.37c-15.69,-8.86 -32.67,-14.13 -50.16,-18c-3.75,-0.82 -7.53,-1.53 -11.29,-2.27c-13.56,-2.67 -24.23,5.94 -24.29,19.8c-0.1,20.8 0,41.6 0,62.4c0,9.59 0.59,9.19 -9,9.23c-29.15,0.12 -52.56,27.49 -48.44,56.45c0.912,7.139 3.322,14.006 7.07,20.15c2.31,3.74 1.87,4.91 -2.5,5.75c-16.014,3.24 -32.386,4.346 -48.69,3.29c-19.186,-1.211 -38.045,-5.552 -55.83,-12.85c-49.54,-20.667 -83.907,-56.14 -103.1,-106.42c-4.469,-11.823 -7.562,-24.12 -9.22,-36.65Zm105.54,-28.61c0.28,-41.51 34,-75.21 75.17,-75c41.41,0.2 75.12,34 74.93,75.22c-0.066,41.098 -33.901,74.88 -75,74.88c-0.047,0 -0.093,0 -0.14,0c-41.5,-0.13 -75.24,-33.94 -74.96,-75.1Zm-5.1,-44.74l-1.76,-0.75c-22.267,-9.42 -44.537,-18.823 -66.81,-28.21c-2.1,-0.88 -2.78,-1.54 -1.6,-3.92c11.49,-23.23 26.9,-43.14 48.44,-58c4.288,-2.91 8.765,-5.532 13.4,-7.85c1.89,-1 2.62,-0.49 3.6,1.26c11.62,20.8 23.287,41.563 35,62.29c0.88,1.56 0.95,2.29 -0.78,3.35c-12.18,7.42 -22.09,17 -27.87,30.33c-0.24,0.74 -0.37,1.84 -1.62,1.5Z"/><path d="M277.95,292.96l0,-79.69c0,-11.28 5.72,-16.09 16.73,-14.07c19.25,3.53 38.1,8.4 55.56,17.59c9.73,5.12 18.63,11.31 24.66,20.81c8.12,12.82 6.61,25.87 0.52,38.88c-4.92,10.53 -12.08,19.51 -20,27.91c-0.571,0.651 -1.223,1.225 -1.94,1.71c-0.56,0.36 -1.2,1.14 -2,0.53c-0.8,-0.61 -0.51,-1.29 -0.31,-2.06c1.25,-4.9 2.78,-9.76 3.63,-14.73c2.06,-12.22 0.52,-23.58 -9.76,-32c-8,-6.52 -17.69,-8.5 -27.63,-9.51c-3.55,-0.36 -8.23,-1.72 -10.44,-0c-2.37,1.79 -0.72,6.7 -0.73,10.24c-0.09,21.67 0,43.34 -0.1,65c0,8.29 -0.28,16.58 -2.77,24.6c-5.7,18.34 -26.29,31.23 -45.33,28.4c-23.1,-3.44 -38.71,-21.94 -38.06,-45.11c0.76,-26.63 27.62,-46.52 53.38,-39.52c1.45,0.36 2.9,0.64 4.59,1.02Z" style="fill-rule:nonzero;"/><path d="M314.4,310.72l-0,-52.07c-0,-1.21 -0.3,-2.51 1.78,-2.25c8.38,1 16.7,2.29 23.68,7.62c4.55,3.48 4.52,3.69 1.87,8.61c-7.42,13.828 -16.607,26.632 -27.33,38.09Z" style="fill-rule:nonzero;"/><path d="M182.49,195.6c-7.976,-0 -14.54,-6.564 -14.54,-14.54c-0,-7.976 6.564,-14.54 14.54,-14.54c7.976,0 14.54,6.564 14.54,14.54c-0,7.976 -6.564,14.54 -14.54,14.54Z" style="fill-rule:nonzero;"/></g></svg>