<?xml version="1.0" encoding="UTF-8" standalone="no"?><!DOCTYPE svg PUBLIC "-//W3C//DTD SVG 1.1//EN" "http://www.w3.org/Graphics/SVG/1.1/DTD/svg11.dtd"><svg width="100%" height="100%" viewBox="0 0 385 385" version="1.1" xmlns="http://www.w3.org/2000/svg" xmlns:xlink="http://www.w3.org/1999/xlink" xml:space="preserve" xmlns:serif="http://www.serif.com/" style="fill-rule:evenodd;clip-rule:evenodd;stroke-linejoin:round;stroke-miterlimit:2;"><g><path d="M309.81,122.21c-0,-11.28 -0.09,-22.14 0.06,-33c-0,-2.86 -0.68,-3.15 -3.34,-2.48c-13.18,3.35 -26.44,6.33 -40.13,6.62c-3.991,0.248 -7.997,-0.089 -11.89,-1c-8.17,-2.24 -10.12,-8.73 -4.36,-15c6.41,-6.9 14.68,-11.12 23.06,-15c25.75,-11.84 52.6,-20 80.85,-23c5.583,-0.754 11.252,-0.585 16.78,0.5c3.64,0.81 7,2.12 8.34,6.05c1.34,3.93 -0.8,7 -3.35,9.71c-5.7,6 -12.91,9.75 -20.17,13.36c-11.393,5.603 -23.247,10.217 -35.43,13.79c-2.29,0.68 -3,1.68 -3,4.13c0.17,9.48 -0.22,19 0.21,28.46c0.18,4 -1.18,5.66 -4.8,6.17c-0.83,0.12 -1.66,0.4 -2.83,0.69Z" style="fill-rule:nonzero;"/><path d="M74.31,119.11c-7.5,-1.7 -7.5,-1.7 -7.5,-9c-0,-7.75 -0.13,-15.5 0.07,-23.24c0.07,-2.47 -0.75,-3.42 -3,-4.11c-15.63,-4.8 -30.82,-10.68 -45,-19c-4.032,-2.248 -7.704,-5.089 -10.89,-8.43c-6.06,-6.66 -3.86,-13.54 5,-15.42c7.7,-1.65 15.46,-1.05 23.11,0.1c28.79,4.31 56.36,12.61 82.26,26.07c5.66,2.95 11.06,6.33 15.41,11.1c5.87,6.46 4,13 -4.45,15.05c-8.77,2.13 -17.65,1.13 -26.43,-0.17c-8.64,-1.243 -17.186,-3.067 -25.58,-5.46c-2.73,-0.79 -3,0.2 -3,2.58c0.06,9.86 -0,19.73 -0,29.93Z" style="fill-rule:nonzero;"/><path d="M139.81,137.16c-1,7 -1.83,12.28 -2.56,17.6c-0.18,1.32 -1.12,1.88 -2,2.53c-4.334,3.174 -8.352,6.757 -12,10.7c-1.18,1.29 -2.26,1.43 -3.93,1.13c-22.713,-4.127 -45.437,-8.173 -68.17,-12.14c-3.23,-0.56 -4.3,-2 -3.83,-5c1.48,-9.49 3,-19 4.33,-28.5c0.4,-2.74 1.72,-3.54 4.38,-3.07c26.4,4.727 52.807,9.427 79.22,14.1c2.4,0.39 4.87,0.88 4.56,2.65Z" style="fill-rule:nonzero;"/><path d="M331.59,154.05c0.26,2.65 -1.33,3.37 -3.59,3.73c-13.17,2.13 -26.32,4.35 -39.48,6.51c-8.37,1.38 -16.76,2.59 -25.09,4.16c-2.031,0.58 -4.222,-0.134 -5.52,-1.8c-1.912,-2.317 -4.136,-4.356 -6.61,-6.06c-5.1,-3.15 -7.07,-7.47 -7.8,-13.37c-1.28,-10.5 -2.36,-9.37 7.62,-11c23.5,-3.84 47,-7.75 70.49,-11.58c4.58,-0.75 5.12,-0.32 5.9,4.3c1.42,8.39 2.73,16.74 4.08,25.11Z" style="fill-rule:nonzero;"/><path d="M74.31,290.86l-0,48.77c-0,1.62 0.21,3.32 -1.17,4.54c-1.13,1.061 -2.811,1.309 -4.2,0.62c-1.69,-0.75 -2.15,-2.25 -2.14,-4l-0,-49.83c-4.41,3.56 -8.43,6.77 -12.42,10l-29.36,23.87c-0.38,0.32 -0.79,0.61 -1.17,0.93c-1.95,1.6 -3.92,1.74 -5.58,-0.28c-1.66,-2.02 -1,-4 0.9,-5.52c6.38,-5.213 12.77,-10.413 19.17,-15.6c8.63,-7 17.2,-14.08 25.93,-21c1.79,-1.312 2.769,-3.469 2.58,-5.68c-0.067,-36.36 -0.067,-72.713 -0,-109.06l-0,-4.11c7.5,1.61 7.5,1.61 7.5,8.92l-0,104.19c-0.198,2.206 0.77,4.362 2.55,5.68c14.76,11.74 29.4,23.61 44.07,35.45c0.802,0.594 1.546,1.264 2.22,2c1.287,1.303 1.345,3.408 0.13,4.78c-0.606,0.908 -1.628,1.455 -2.72,1.455c-0.702,0 -1.386,-0.226 -1.95,-0.645c-1.446,-0.978 -2.838,-2.033 -4.17,-3.16l-40.17,-32.32Z" style="fill-rule:nonzero;"/><path d="M309.81,290.9l-40,32.24l-2.92,2.35c-2.09,1.69 -4.37,2.4 -6.18,-0.07c-1.62,-2.22 -0.55,-4.19 1.45,-5.8c7.887,-6.32 15.763,-12.653 23.63,-19c7.1,-5.72 14.16,-11.49 21.33,-17.12c1.825,-1.263 2.859,-3.395 2.72,-5.61c-0.087,-34.733 -0.107,-69.467 -0.06,-104.2c0,-7.31 0,-7.31 7.17,-9.07c0.66,1.25 0.31,2.62 0.31,3.92l0,109.07c-0.181,2.35 0.883,4.629 2.8,6c14.71,11.8 29.31,23.73 43.94,35.62c0.606,0.439 1.172,0.931 1.69,1.47c1.28,1.49 1.58,3.15 0.27,4.76c-1.31,1.61 -3.09,2.21 -4.93,0.88c-2.32,-1.69 -4.52,-3.54 -6.75,-5.35c-12.113,-9.84 -24.23,-19.697 -36.35,-29.57c-1.16,0.91 -0.58,2.11 -0.58,3.12c-0.04,15.12 -0.04,30.237 0,45.35c0,1.91 0.06,3.81 -2,4.88c-2.92,1.56 -5.53,-0.51 -5.54,-4.5l0,-49.37Z" style="fill-rule:nonzero;"/><path d="M167.55,102.83l51.64,-0c6.17,-0 8.82,2.72 8.87,8.93c0.09,11.51 -1.22,12.81 -12.84,12.81c-5.74,0 -11.48,0.15 -17.22,-0.07c-2.57,-0.09 -3.1,0.79 -3,3.13c0.18,4 -0,8 0.08,12c0.11,3.79 -2.68,1.9 -4.2,2.13c-1.52,0.23 -3.57,0.88 -3.39,-2.21c0.24,-4.1 -0.06,-8.24 0.11,-12.35c0.09,-2.15 -0.6,-2.69 -2.69,-2.66c-7.24,0.13 -14.48,0.07 -21.72,-0c-6,-0 -8.59,-2.66 -8.64,-8.71c-0.1,-11.85 1.07,-13 13,-13Z" style="fill-rule:nonzero;"/><path d="M236.42,306.55c4.27,5.23 8.41,10.38 12.64,15.47c1.76,2.12 3,4.37 0.43,6.49c-2.57,2.12 -4.56,0.38 -6.26,-1.72c-3.93,-4.85 -7.94,-9.64 -11.81,-14.54c-1.14,-1.45 -1.92,-2 -3.92,-1.1c-24.11,10.81 -48.3,10.76 -72.43,0c-1.89,-0.84 -2.75,-0.57 -3.94,1c-3.77,4.82 -7.72,9.49 -11.57,14.25c-1.73,2.13 -3.57,4.41 -6.47,2.15c-3.15,-2.45 -1.08,-4.81 0.71,-7c3.51,-4.22 6.82,-8.62 10.51,-12.71c1.81,-2 1.22,-2.82 -0.7,-4.1c-19.9,-13.367 -32.277,-31.81 -37.13,-55.33c-8.76,-42.54 16.72,-85.87 58.24,-99.07c8.559,-2.753 17.495,-4.155 26.485,-4.155c47.453,0 86.5,39.048 86.5,86.5c0,28.574 -14.158,55.366 -37.765,71.465c-1.14,0.75 -2.24,1.52 -3.52,2.4Zm-45.18,2.22c-42.29,-0.4 -76.41,-34.52 -76,-76c0.45,-43.11 34.37,-76.48 77.3,-76.05c41.54,0.42 75,34.9 74.64,76.81c-0.38,41.63 -34.72,75.63 -75.94,75.24Z"/><path d="M191.08,301.25c-38.92,-0.73 -69.26,-31.78 -68.34,-69.92c0.93,-38.35 32,-67.82 70.72,-67.06c36.81,0.71 66.9,32.17 66.24,69.26c-0.69,37.88 -31.62,68.41 -68.62,67.72Zm20.45,-30.21c-0.026,0 -0.051,0 -0.077,0c-14.482,0 -26.4,-11.917 -26.4,-26.4c0,-14.482 11.918,-26.4 26.4,-26.4c14.328,0 26.174,11.664 26.397,25.99c0.003,0.17 0.005,0.34 0.005,0.51c-0,14.428 -11.872,26.3 -26.3,26.3l-0.025,0Z"/><path d="M211.4,263.51c-10.34,-0.033 -18.83,-8.55 -18.83,-18.89c0,-10.363 8.528,-18.89 18.89,-18.89c10.321,0 18.83,8.459 18.89,18.78c0.001,0.08 0.002,0.161 0.002,0.241c-0,10.291 -8.469,18.76 -18.76,18.76c-0.064,-0 -0.128,-0 -0.192,-0.001Z" style="fill-rule:nonzero;"/></g></svg>