<?xml version="1.0" encoding="UTF-8" standalone="no"?><!DOCTYPE svg PUBLIC "-//W3C//DTD SVG 1.1//EN" "http://www.w3.org/Graphics/SVG/1.1/DTD/svg11.dtd"><svg width="100%" height="100%" viewBox="0 0 385 385" version="1.1" xmlns="http://www.w3.org/2000/svg" xmlns:xlink="http://www.w3.org/1999/xlink" xml:space="preserve" xmlns:serif="http://www.serif.com/" style="fill-rule:evenodd;clip-rule:evenodd;stroke-linejoin:round;stroke-miterlimit:2;"><g><path d="M384.08,69.07c-4.62,5 -7.19,5 -12.22,-0.05c-3.9,-3.89 -3.86,-3.85 -7.9,0.09c-2.58,2.53 -5.28,4.94 -8.22,7.68c2.45,2.29 4.58,4 6.42,6.07c1.093,1.091 1.707,2.574 1.707,4.118c0,1.621 -0.677,3.171 -1.867,4.272c-2.3,2.23 -5.88,2.68 -8,0.05c-4.09,-5 -8.26,-6.48 -14.82,-4.58c-5.52,1.6 -11.08,-1.08 -15.32,-5.21c-7.15,-7 -14.32,-13.92 -21.16,-21.19c-5.67,-6.05 -7.12,-13.32 -4.08,-21.14c0.74,-1.92 0.31,-2.91 -1,-4.11c-1.692,-1.482 -3.279,-3.079 -4.75,-4.78c-0.967,-1.087 -1.502,-2.493 -1.502,-3.948c0,-3.258 2.682,-5.94 5.94,-5.94c1.494,0 2.935,0.564 4.032,1.578c2,1.84 3.78,4 5.93,6.28c3.68,-3.77 7,-7.31 10.5,-10.69c1.29,-1.24 1,-1.94 -0.16,-2.9c-1,-0.8 -1.78,-1.74 -2.66,-2.63c-4.75,-4.77 -4.7,-7.47 0.2,-12l4.5,0c2.272,0.713 4.27,2.11 5.72,4c1.38,1.61 2.82,1.9 4.52,0.52c5.08,-4.12 11.09,-4.16 17.1,-3.58c3.343,0.406 6.662,0.997 9.94,1.77c13.52,2.85 21.74,11 24.52,24.54c1.167,4.849 1.837,9.805 2,14.79c0,4.29 -0.83,8.22 -3.43,11.6c-1.75,2.28 -1.51,4 0.68,5.71c1.668,1.317 2.873,3.132 3.44,5.18l-0.06,4.5Z" style="fill-rule:nonzero;"/><path d="M128.33,384.07c1.278,-1.134 3.222,-1.134 4.5,0l-4.5,0Z" style="fill:#131313;fill-rule:nonzero;"/><path d="M200.06,204.94c-1.75,0.1 -2.25,-1.32 -3,-2.45c-3.986,-6.231 -9.279,-11.524 -15.51,-15.51c-3.18,-2 -3.25,-2.9 -0.46,-5.7c16.073,-16.1 32.15,-32.193 48.23,-48.28l61,-61c3.3,-3.29 3.67,-3.3 6.88,-0.09c4.96,4.947 9.91,9.9 14.85,14.86c3.43,3.44 3.43,3.75 0,7.15c-34.727,34.733 -69.467,69.46 -104.22,104.18c-1.853,1.86 -3.71,3.713 -5.57,5.56c-0.525,0.712 -1.322,1.176 -2.2,1.28Z" style="fill-rule:nonzero;"/><path d="M155.69,191.56c20.021,0.345 36.303,16.91 36.303,36.935c-0,20.046 -16.319,36.622 -36.363,36.935c-20.06,0 -37,-16.75 -37,-36.58c-0.055,-20.391 16.669,-37.219 37.06,-37.29Z" style="fill-rule:nonzero;"/><path d="M0.74,242.97c2.42,-27.12 25.91,-52.14 53.39,-56.9c6.26,-1.08 12.65,-1.35 18.7,-3.62c14.56,-5.45 24.44,-15.55 29.94,-30c3.62,-9.5 7.89,-18.52 15,-26c19.752,-20.676 51.713,-24.421 75.71,-8.87c5.74,3.76 11.12,8.06 16.7,12.05c2.24,1.59 2.53,3.08 0.47,5.12c-14.613,14.547 -29.187,29.133 -43.72,43.76c-1.9,1.92 -4,1.64 -6.25,1.41c-23.708,-2.545 -45.974,12.669 -52.22,35.68c-7.63,27.55 10.3,56 38.55,61.06c27.7,5 54.28,-14.93 57.18,-42.83c0.437,-3.85 0.393,-7.74 -0.13,-11.58c-0.362,-1.986 0.336,-4.023 1.84,-5.37c14.453,-14.36 28.867,-28.753 43.24,-43.18c1.43,-1.42 3,-2.84 4.63,-0.58c6.67,9.3 14.45,17.87 18.54,28.86c11.369,30.018 -3.403,64.108 -33.08,76.34c-7.34,3.1 -15,5.57 -21.34,10.61c-11.27,8.93 -17.4,20.63 -19,34.84c-3.36,30.44 -24.85,53.68 -54.82,59.38c-1.5,0.29 -3.23,-0.38 -4.52,0.94l-6.72,0c-1.437,-0.61 -3.063,-0.61 -4.5,0l-3.75,0c-16.56,-1.65 -30.78,-8.75 -43.55,-19c-3.803,-3.055 -7.435,-6.317 -10.88,-9.77c-13.78,-13.77 -27.62,-27.5 -41.32,-41.35c-9.36,-9.47 -17.54,-19.77 -22.86,-32.17c-3.126,-7.055 -5.115,-14.562 -5.89,-22.24l-0,-12c0.94,-1.42 -0.11,-3.13 0.66,-4.59Zm120.39,67.28c-0.177,1.982 -1.455,3.705 -3.3,4.45c-2.312,1.169 -5.137,0.68 -6.92,-1.2c-3.66,-3.59 -7.26,-7.23 -10.88,-10.85c-9.2,-9.193 -18.393,-18.383 -27.58,-27.57c-0.84,-0.748 -1.61,-1.571 -2.3,-2.46c-1.89,-2.68 -1.83,-5.39 0.39,-7.85c2.153,-2.287 5.788,-2.444 8.13,-0.35c1.9,1.61 3.58,3.48 5.35,5.25c11.4,11.387 22.803,22.783 34.21,34.19c1.54,1.53 2.97,3.07 2.9,6.39Z"/></g></svg>