<?xml version="1.0" encoding="UTF-8" standalone="no"?><!DOCTYPE svg PUBLIC "-//W3C//DTD SVG 1.1//EN" "http://www.w3.org/Graphics/SVG/1.1/DTD/svg11.dtd"><svg width="100%" height="100%" viewBox="0 0 385 385" version="1.1" xmlns="http://www.w3.org/2000/svg" xmlns:xlink="http://www.w3.org/1999/xlink" xml:space="preserve" xmlns:serif="http://www.serif.com/" style="fill-rule:evenodd;clip-rule:evenodd;stroke-linejoin:round;stroke-miterlimit:2;"><path d="M384.07,129.83l0,12.75c-0.215,0.19 -0.339,0.463 -0.339,0.75c0,0.287 0.124,0.56 0.339,0.75l0,3.75c-1.323,13.437 -5.34,26.47 -11.81,38.32c-6.218,11.576 -13.78,22.377 -22.53,32.18c-19.32,21.89 -41.36,40.85 -64,59.17c-28.63,23.19 -57.74,45.78 -86.37,69c-8.82,7.14 -6.64,6.26 -14.27,0.16c-25,-20 -50.07,-39.78 -75.06,-59.71c-24.21,-19.32 -48.16,-39 -69.41,-61.63c-15.84,-16.99 -29.3,-35.42 -36.61,-57.79c-1.93,-6.428 -3.249,-13.024 -3.94,-19.7l0,-3.75c0.215,-0.19 0.339,-0.463 0.339,-0.75c-0,-0.287 -0.124,-0.56 -0.339,-0.75l0,-13.5c0.215,-0.19 0.339,-0.463 0.339,-0.75c-0,-0.287 -0.124,-0.56 -0.339,-0.75l0,-3.75c0.701,-8.944 2.649,-17.746 5.79,-26.15c12.52,-31.77 35,-52.73 68,-61.87c23.16,-6.41 46,-5.21 68.12,4.7c13.235,6.043 25.031,14.839 34.6,25.8c4.989,5.599 9.514,11.596 13.53,17.93c1.85,2.9 2.11,2.9 4,-0c7.86,-12.32 17.24,-23.25 28.92,-32.15c13.92,-10.62 29.43,-17.37 46.89,-19.27c29.34,-3.19 55.88,3.79 78.73,22.76c18.79,15.61 30,35.83 34.5,59.79c0.57,3 0.23,6.18 1,9.21l-0,3c-0.579,0.623 -0.614,1.587 -0.08,2.25Z" style="fill-rule:nonzero;"/></svg>