<?xml version="1.0" encoding="UTF-8" standalone="no"?><!DOCTYPE svg PUBLIC "-//W3C//DTD SVG 1.1//EN" "http://www.w3.org/Graphics/SVG/1.1/DTD/svg11.dtd"><svg width="100%" height="100%" viewBox="0 0 171 171" version="1.1" xmlns="http://www.w3.org/2000/svg" xmlns:xlink="http://www.w3.org/1999/xlink" xml:space="preserve" xmlns:serif="http://www.serif.com/" style="fill-rule:evenodd;clip-rule:evenodd;stroke-linejoin:round;stroke-miterlimit:2;"><g><path d="M110.46,0.03c3.72,2 4.08,4.67 1,7.73l-76.06,76c-0.817,0.553 -1.233,1.539 -1.06,2.51c0.082,1.18 -0.419,2.328 -1.34,3.07c-5.94,5.94 -11.86,11.9 -17.83,17.81c-2,2 -4.19,2 -6.27,0c-0.93,-0.87 -1.84,-1.75 -2.69,-2.69c-1.72,-1.9 -1.85,-4.13 -0.08,-5.93c6,-6.11 12.09,-12.14 18.16,-18.17c0.739,-0.871 1.865,-1.318 3,-1.19c0.929,0.149 1.867,-0.238 2.42,-1c25.333,-25.373 50.667,-50.733 76,-76.08c0.863,-0.922 1.908,-1.655 3.07,-2.15l1.68,0.09Z" style="fill-rule:nonzero;"/><path d="M136.57,48.32c-0.81,-0.94 -1.68,-1.8 -2.37,-2.78c-1.092,-1.551 -0.882,-3.69 0.49,-5c1.325,-1.248 3.342,-1.442 4.88,-0.47c0.819,0.569 1.562,1.241 2.21,2c0.57,0.6 1,1.12 1.84,0.26c0.84,-0.86 -0.09,-1.13 -0.42,-1.53c-0.711,-0.699 -1.379,-1.44 -2,-2.22c-1.038,-1.562 -0.846,-3.654 0.46,-5c1.325,-1.359 3.472,-1.535 5,-0.41c1.005,0.775 1.939,1.639 2.79,2.58c0.61,0.65 1,0.72 1.71,0.1c3,-2.55 4.59,-2.44 7.39,0.36c1.25,1.25 2.51,2.49 3.74,3.76c2.12,2.17 2.31,4.2 0.28,6.39c-1.07,1.17 -0.88,1.81 0.19,2.7c0.869,0.689 1.622,1.513 2.23,2.44c0.386,0.622 0.591,1.34 0.591,2.072c-0,2.156 -1.774,3.93 -3.93,3.93c-0.74,0 -1.465,-0.209 -2.091,-0.602c-0.988,-0.707 -1.888,-1.529 -2.68,-2.45c-0.43,-0.43 -0.76,-0.6 -1.18,-0c-0.29,0.43 -0.87,0.76 -0.2,1.36c0.657,0.589 1.278,1.217 1.86,1.88c0.998,0.756 1.586,1.937 1.586,3.189c-0,2.195 -1.806,4 -4,4c-1.227,0 -2.388,-0.564 -3.146,-1.529c-0.66,-0.659 -1.269,-1.368 -1.82,-2.12c-0.78,0.87 -1.34,1.52 -1.92,2.13c-0.89,1.114 -2.368,1.588 -3.74,1.2c-0.732,-0.272 -1.562,-0.007 -2,0.64c-7.693,7.7 -15.397,15.39 -23.11,23.07c-0.446,0.31 -0.713,0.82 -0.713,1.363c0,0.408 0.151,0.803 0.423,1.107c5.14,9 6.29,18.22 1.8,27.82c-1.735,3.337 -4.114,6.297 -7,8.71c-1.57,1.43 -3.32,1.12 -5.1,0.35c-3.29,-1.512 -7.013,-1.806 -10.5,-0.83c-6.085,1.721 -10.001,7.74 -9.11,14c0.225,1.863 0.714,3.684 1.45,5.41c0.973,1.88 0.505,4.203 -1.12,5.56c-2.51,2.42 -4.93,4.92 -7.39,7.38c-0.39,0.38 -0.76,0.68 -0.64,1.39c0.44,2.57 -0.17,3.8 -2.55,5.09c-6.899,3.874 -14.976,5.115 -22.72,3.49c-6.652,-1.3 -12.753,-4.593 -17.49,-9.44c-1.45,-1.48 -2,-3.16 -1,-5.08c0.45,-0.85 -0.14,-1.24 -0.48,-1.73c-3.017,-4.175 -4.952,-9.034 -5.63,-14.14c-1.09,-8.62 1.09,-16.18 7.3,-22.42c2.45,-2.47 5,-4.87 7.36,-7.4c1.425,-1.813 3.974,-2.34 6,-1.24c3.228,1.522 6.894,1.848 10.34,0.92c6,-1.538 10.017,-7.287 9.4,-13.45c-0.14,-2.092 -0.647,-4.144 -1.5,-6.06c-1,-2.16 -0.41,-3.85 1.16,-5.54c7.77,-8.34 17.19,-10.69 28.05,-7.85c2.84,0.745 5.542,1.944 8,3.55c0.256,0.244 0.597,0.38 0.951,0.38c0.455,0 0.882,-0.225 1.139,-0.6c7.74,-7.813 15.51,-15.59 23.31,-23.33c0.629,-0.452 0.877,-1.277 0.6,-2c-0.358,-1.377 0.129,-2.842 1.24,-3.73c0.52,-0.57 1.16,-1.09 1.78,-1.63Zm-88.84,108.74c4.03,-2.145 8.147,-2.895 12.074,-2.311c3.926,0.583 7.661,2.501 10.926,5.691c-8.23,2.65 -15.76,1.28 -23,-3.38Z"/></g></svg>